<?xml version="1.0" encoding="UTF-8" standalone="no"?>
<!DOCTYPE svg PUBLIC "-//W3C//DTD SVG 1.1//EN" "http://www.w3.org/Graphics/SVG/1.1/DTD/svg11.dtd">
<svg width="6260" height="1595" viewBox="0 0 6260 1595" version="1.1" xmlns="http://www.w3.org/2000/svg" xmlns:xlink="http://www.w3.org/1999/xlink" xml:space="preserve" xmlns:serif="http://www.serif.com/" style="fill-rule:evenodd;clip-rule:evenodd;stroke-linejoin:round;stroke-miterlimit:2;">
    <g transform="matrix(4.01982,0,0,4.01982,340.102,-160.62)">
        <g transform="matrix(4.16667,0,0,4.16667,-125.333,-168.552)">
            <path d="M108.652,138.516C106.605,139.289 104.484,139.945 102.297,140.465C74.926,146.957 47.461,130.023 40.965,102.652C36.539,83.996 43,65.297 56.227,53.227C45.934,65.594 41.375,82.41 45.352,99.176C52.031,127.328 80.262,144.797 108.652,138.516Z" style="fill:rgb(15,182,230);"/>
        </g>
        <g transform="matrix(4.16667,0,0,4.16667,-125.333,-168.552)">
            <path d="M46.879,123.699C46.473,127.801 48.102,130.875 60.047,128.551C80.918,125.527 98.543,112.703 114.605,96.223C103.152,113.621 86.117,124.605 68.254,132.316C68.254,132.316 43.809,141.938 39.086,135.227C39.086,135.227 35.441,132.707 42.109,124.156C46.43,118.613 47.754,114.898 46.879,123.699Z" style="fill:rgb(95,95,95);"/>
        </g>
        <g transform="matrix(4.16667,0,0,4.16667,-125.333,-168.552)">
            <path d="M36.098,103.066C36.098,103.066 20.094,122 44.625,117.223C64.93,114.793 102.66,95.93 117.922,80.266C104.508,98.836 74.551,113.434 52.828,120.992C52.828,120.992 28.383,130.614 23.664,123.898C23.664,123.898 17.559,119.711 36.098,103.066Z" style="fill:rgb(95,95,95);"/>
        </g>
        <g transform="matrix(4.16667,0,0,4.16667,-125.333,-168.552)">
            <path d="M37.203,86.477C37.203,86.477 21.199,105.41 45.73,100.637C64.285,98.418 88.48,85.949 104.473,72.211C109.824,69.578 76.52,98.715 53.934,104.406C53.934,104.406 29.488,114.027 24.77,107.312C24.77,107.312 18.664,103.121 37.203,86.477Z" style="fill:rgb(95,95,95);"/>
        </g>
        <g transform="matrix(4.16667,0,0,4.16667,-125.333,-168.552)">
            <path d="M125.527,82.457L136.726,82.458L136.726,118.657L125.527,118.657L125.527,82.457Z" style="fill:url(#_Linear1);"/>
        </g>
        <g transform="matrix(4.16667,0,0,4.16667,-125.333,-168.552)">
            <path d="M185.516,118.656L168.582,118.656L157.652,109.133C155.777,107.508 154.34,106.246 153.348,105.344C152.359,104.441 151.555,103.688 150.941,103.07C150.977,103.902 151.016,104.758 151.051,105.641C151.086,106.527 151.105,107.402 151.105,108.266L151.105,118.656L139.852,118.656L139.852,82.457L151.105,82.457L151.105,90.844C151.105,91.961 151.086,93.062 151.051,94.145C151.016,95.227 150.961,96.238 150.887,97.176C151.609,96.527 152.484,95.723 153.512,94.766C154.539,93.812 155.883,92.648 157.543,91.277L167.984,82.457L185.344,82.457L170.367,92.848C169.141,93.695 168.121,94.543 167.199,95.227C166.281,95.91 165.461,96.508 164.738,97.012C164.02,97.516 163.359,97.969 162.766,98.363C162.168,98.762 161.582,99.141 161.004,99.5C162.051,100.223 163.312,101.125 164.793,102.207C166.273,103.289 168.184,104.785 170.527,106.699L185.516,118.656Z" style="fill:url(#_Linear2);"/>
        </g>
        <g transform="matrix(4.16667,0,0,4.16667,-125.333,-168.552)">
            <path d="M229.273,118.656L218.125,118.656L218.125,104.695L196.59,104.695L196.59,118.656L185.336,118.656L185.336,82.457L196.59,82.457L196.59,95.281L218.125,95.281L218.125,82.457L229.273,82.457L229.273,118.656Z" style="fill:url(#_Linear3);"/>
        </g>
        <g transform="matrix(4.16667,0,0,4.16667,-125.333,-168.552)">
            <path d="M364.418,119.156C363.695,119.156 362.984,119.039 362.281,118.805C361.578,118.57 360.793,118.039 359.926,117.211L337.742,97.297L337.742,118.562L327.57,118.562L327.57,88.531C327.57,87.344 327.742,86.312 328.082,85.449C328.426,84.582 328.879,83.879 329.438,83.34C329.996,82.797 330.645,82.402 331.383,82.148C332.125,81.895 332.891,81.77 333.684,81.77C334.371,81.77 335.062,81.887 335.766,82.121C336.469,82.355 337.273,82.887 338.176,83.719L360.359,103.629L360.359,82.363L370.586,82.363L370.586,112.34C370.586,113.531 370.414,114.559 370.07,115.426C369.727,116.289 369.277,117.004 368.719,117.562C368.16,118.121 367.5,118.527 366.742,118.777C365.984,119.031 365.211,119.156 364.418,119.156Z" style="fill:url(#_Linear4);"/>
        </g>
        <g transform="matrix(4.16667,0,0,4.16667,-125.333,-168.552)">
            <path d="M270.055,105.09C269.262,103.684 268.578,102.449 268,101.383C267.422,100.32 266.898,99.363 266.43,98.516C265.961,97.668 265.555,96.902 265.215,96.215C264.871,95.531 264.535,94.863 264.211,94.215C263.922,94.863 263.609,95.531 263.266,96.215C262.922,96.902 262.527,97.668 262.074,98.516C261.625,99.363 261.109,100.309 260.531,101.355C259.957,102.402 259.269,103.629 258.476,105.035L252.688,115.316C252.039,116.469 251.219,117.398 250.227,118.102C249.234,118.805 248,119.156 246.52,119.156C245.113,119.156 243.84,118.75 242.703,117.941C241.57,117.129 240.746,115.875 240.242,114.18L231.043,82.363L242.246,82.363L245.652,94.973C246.23,97.027 246.707,98.832 247.086,100.383C247.465,101.934 247.801,103.449 248.09,104.926C248.664,103.664 249.344,102.266 250.117,100.734C250.895,99.199 251.91,97.262 253.176,94.918L258.043,85.828C258.512,84.926 258.98,84.215 259.449,83.691C259.918,83.168 260.414,82.762 260.937,82.473C261.461,82.184 262.012,81.996 262.59,81.906C263.168,81.812 263.781,81.77 264.43,81.77C265.113,81.77 265.746,81.812 266.324,81.906C266.898,81.996 267.449,82.184 267.973,82.473C268.496,82.762 269,83.168 269.488,83.691C269.977,84.215 270.453,84.926 270.922,85.828L275.738,94.973C276.422,96.234 277.02,97.344 277.523,98.301C277.766,98.758 277.996,99.195 278.211,99.613C278.445,100.062 278.668,100.492 278.875,100.895L279.121,101.375L279.801,102.762L279.93,103.035C280.238,103.684 280.535,104.312 280.824,104.926L280.836,104.863L286.691,116.762L287.586,118.555L284.785,118.555L284.754,118.566L279.121,118.566L279.094,118.555L277.57,118.555L276.105,115.746C276.016,115.605 275.93,115.465 275.844,115.316L270.055,105.09Z" style="fill:url(#_Linear5);"/>
        </g>
        <g transform="matrix(4.16667,0,0,4.16667,-125.333,-168.552)">
            <path d="M307.621,91.652L287.586,118.555L277.531,118.562L300.742,85.828C301.5,84.781 302.457,83.844 303.609,83.012C304.766,82.184 306.227,81.77 307.992,81.77C309.688,81.77 311.105,82.156 312.242,82.934C313.375,83.707 314.344,84.672 315.137,85.828L337.754,118.562L327.57,118.562L307.621,91.652Z" style="fill:url(#_Linear6);"/>
        </g>
        <g transform="matrix(4.16667,0,0,4.16667,-125.333,-168.552)">
            <path d="M128.828,130.652L128.882,128.816L130.656,128.816L130.604,130.652L128.828,130.652ZM128.516,141.84L128.781,132.41L130.554,132.41L130.289,141.84L128.516,141.84ZM157.062,141.84L157.328,132.41L158.93,132.41L158.895,133.742C159.691,132.707 160.824,132.191 162.289,132.191C164.672,132.191 165.828,133.332 165.766,135.617L165.59,141.84L163.816,141.84L163.977,136.098C164.023,134.418 163.324,133.578 161.871,133.578C160.008,133.578 159.055,134.609 158.996,136.684L158.852,141.84L157.062,141.84ZM192.824,141.84L193.055,133.645L191.477,133.645L191.512,132.41L193.09,132.41L193.117,131.402C193.133,130.821 193.203,130.371 193.332,130.055C193.453,129.739 193.641,129.469 193.891,129.25C194.137,129.032 194.449,128.871 194.82,128.762C195.191,128.652 195.621,128.599 196.102,128.599C196.609,128.599 197.16,128.648 197.77,128.75L197.457,130.148C197.094,130.086 196.746,130.055 196.414,130.055C195.855,130.055 195.469,130.16 195.246,130.375C195.023,130.59 194.902,130.974 194.887,131.535L194.863,132.41L196.906,132.41L196.871,133.645L194.828,133.645L194.598,141.84L192.824,141.84ZM221.551,137.113C221.598,135.484 222.098,134.254 223.047,133.426C224,132.605 225.191,132.191 226.613,132.191C227.512,132.191 228.312,132.355 229.023,132.688C229.727,133.02 230.312,133.547 230.77,134.273C231.219,134.996 231.43,135.906 231.402,136.992C231.352,138.727 230.84,140.004 229.859,140.824C228.887,141.645 227.711,142.055 226.336,142.055C225.305,142.055 224.434,141.855 223.715,141.461C223,141.066 222.453,140.504 222.074,139.77C221.691,139.031 221.523,138.148 221.551,137.113ZM223.383,137.113C223.359,137.887 223.469,138.547 223.715,139.09C223.957,139.633 224.297,140.047 224.738,140.32C225.18,140.598 225.727,140.738 226.371,140.738C227.371,140.738 228.145,140.402 228.695,139.742C229.242,139.078 229.535,138.188 229.566,137.062C229.598,135.98 229.348,135.121 228.824,134.477C228.293,133.832 227.547,133.512 226.574,133.512C225.535,133.512 224.75,133.855 224.219,134.535C223.691,135.223 223.41,136.082 223.383,137.113ZM261.355,140.406L261.574,141.824C261.066,141.918 260.613,141.957 260.222,141.957C259.664,141.957 259.207,141.883 258.844,141.734C258.472,141.586 258.211,141.359 258.043,141.062C257.871,140.766 257.801,140.102 257.832,139.074L257.984,133.645L256.68,133.645L256.715,132.41L258.019,132.41L258.086,130.071L259.883,129.118L259.793,132.41L261.582,132.41L261.547,133.645L259.758,133.645L259.601,139.172C259.59,139.598 259.613,139.887 259.672,140.035C259.722,140.184 259.828,140.293 259.976,140.359C260.125,140.43 260.328,140.465 260.562,140.465C260.765,140.465 261.031,140.445 261.355,140.406ZM294.387,138.805L296.215,139.008C295.555,141.039 293.984,142.055 291.508,142.055C290.457,142.055 289.57,141.859 288.836,141.477C288.105,141.09 287.547,140.539 287.168,139.816C286.789,139.098 286.617,138.223 286.648,137.199C286.691,135.664 287.164,134.449 288.062,133.543C288.969,132.641 290.18,132.191 291.695,132.191C292.027,132.191 292.348,132.215 292.645,132.258C292.941,132.305 293.223,132.371 293.488,132.461C293.762,132.555 294.012,132.664 294.238,132.805C294.477,132.938 294.695,133.094 294.895,133.266C295.102,133.453 295.285,133.664 295.449,133.891C295.625,134.129 295.777,134.379 295.898,134.641C296.012,134.902 296.105,135.188 296.18,135.5C296.25,135.797 296.297,136.117 296.32,136.449C296.328,136.547 296.32,136.906 296.305,137.523L288.469,137.523C288.504,138.512 288.793,139.297 289.344,139.875C289.891,140.449 290.633,140.738 291.559,140.738C292.895,140.738 293.84,140.09 294.387,138.805ZM288.613,136.219L294.473,136.219C294.422,135.312 294.129,134.633 293.609,134.184C293.086,133.734 292.441,133.512 291.676,133.512C291.105,133.512 290.613,133.621 290.18,133.844C289.75,134.066 289.395,134.379 289.117,134.773C288.836,135.172 288.668,135.656 288.613,136.219ZM329.402,138.383L331.141,138.586C330.93,139.645 330.426,140.492 329.633,141.117C328.836,141.742 327.852,142.055 326.68,142.055C325.176,142.055 324.012,141.621 323.195,140.742C322.375,139.867 321.984,138.672 322.027,137.156C322.059,136.07 322.27,135.16 322.668,134.43C323.062,133.699 323.645,133.145 324.426,132.762C325.203,132.383 326.047,132.191 326.957,132.191C329.328,132.191 330.703,133.184 331.07,135.168L329.336,135.414C329.035,134.148 328.258,133.512 326.996,133.512C324.973,133.512 323.934,134.715 323.863,137.113C323.797,139.531 324.734,140.738 326.684,140.738C328.199,140.738 329.105,139.953 329.402,138.383ZM356.629,141.84L356.992,128.816L358.785,128.816L358.652,133.48C359.504,132.625 360.562,132.191 361.824,132.191C362.754,132.191 363.492,132.355 364.043,132.676C364.594,132.996 364.957,133.422 365.129,133.953C365.301,134.48 365.375,135.121 365.355,135.863L365.188,141.84L363.398,141.84L363.566,135.863C363.609,134.332 362.895,133.566 361.422,133.566C360.746,133.566 360.184,133.707 359.738,133.988C359.297,134.266 358.996,134.629 358.832,135.074C358.668,135.52 358.582,136.055 358.562,136.684L358.418,141.84L356.629,141.84Z" style="fill:rgb(86,87,87);"/>
        </g>
    </g>
    <defs>
        <linearGradient id="_Linear1" x1="0" y1="0" x2="1" y2="0" gradientUnits="userSpaceOnUse" gradientTransform="matrix(-2.21643e-15,-36.197,36.197,-2.21643e-15,-123.738,-80.5825)"><stop offset="0" style="stop-color:rgb(2,163,209);stop-opacity:1"/><stop offset="1" style="stop-color:rgb(0,195,249);stop-opacity:1"/></linearGradient>
        <linearGradient id="_Linear2" x1="0" y1="0" x2="1" y2="0" gradientUnits="userSpaceOnUse" gradientTransform="matrix(-2.21645e-15,-36.1973,36.1973,-2.21645e-15,-138.06,-80.5823)"><stop offset="0" style="stop-color:rgb(2,163,209);stop-opacity:1"/><stop offset="1" style="stop-color:rgb(0,195,249);stop-opacity:1"/></linearGradient>
        <linearGradient id="_Linear3" x1="0" y1="0" x2="1" y2="0" gradientUnits="userSpaceOnUse" gradientTransform="matrix(-2.21643e-15,-36.197,36.197,-2.21643e-15,-183.547,-80.5825)"><stop offset="0" style="stop-color:rgb(2,163,209);stop-opacity:1"/><stop offset="1" style="stop-color:rgb(0,195,249);stop-opacity:1"/></linearGradient>
        <linearGradient id="_Linear4" x1="0" y1="0" x2="1" y2="0" gradientUnits="userSpaceOnUse" gradientTransform="matrix(0.652514,-37.3825,37.3825,0.652514,-324.319,-85.5829)"><stop offset="0" style="stop-color:rgb(56,56,56);stop-opacity:1"/><stop offset="1" style="stop-color:rgb(110,110,110);stop-opacity:1"/></linearGradient>
        <linearGradient id="_Linear5" x1="0" y1="0" x2="1" y2="0" gradientUnits="userSpaceOnUse" gradientTransform="matrix(0.652514,-37.3825,37.3825,0.652514,-227.808,-83.8983)"><stop offset="0" style="stop-color:rgb(56,56,56);stop-opacity:1"/><stop offset="1" style="stop-color:rgb(110,110,110);stop-opacity:1"/></linearGradient>
        <linearGradient id="_Linear6" x1="0" y1="0" x2="1" y2="0" gradientUnits="userSpaceOnUse" gradientTransform="matrix(-0.64213,36.7876,-36.7876,-0.64213,276.078,86.5848)"><stop offset="0" style="stop-color:rgb(56,56,56);stop-opacity:1"/><stop offset="1" style="stop-color:rgb(110,110,110);stop-opacity:1"/></linearGradient>
    </defs>
</svg>
